<?xml version="1.0" encoding="UTF-8"?>
<svg width="2340pt" height="400pt" version="1.0" viewBox="0 0 2340 400" xmlns="http://www.w3.org/2000/svg" xmlns:cc="http://creativecommons.org/ns#" xmlns:dc="http://purl.org/dc/elements/1.1/" xmlns:rdf="http://www.w3.org/1999/02/22-rdf-syntax-ns#">
 <metadata>Created by potrace 1.16, written by Peter Selinger 2001-2019
  <rdf:RDF>
   <cc:Work rdf:about="">
    <dc:format>image/svg+xml</dc:format>
    <dc:type rdf:resource="http://purl.org/dc/dcmitype/StillImage"/>
    <dc:title/>
   </cc:Work>
  </rdf:RDF>
 </metadata>
 <g transform="translate(0 400) scale(.1 -.1)" fill="#fff">
  <path d="m5645 3990c-89-8-116-11-245-31-628-96-1144-406-1455-874-233-353-334-707-322-1140 8-309 66-543 196-804 132-261 316-487 541-662 446-348 1046-509 1745-470 291 16 510 56 757 138 522 172 928 522 1173 1012 217 435 250 970 90 1457-57 173-119 301-220 454-129 196-264 337-467 490-300 226-716 376-1168 424-140 14-488 18-625 6zm660-479c322-49 546-134 768-292 201-143 364-330 462-533 110-226 149-407 149-696 1-210-14-317-69-486-39-118-88-220-158-324-260-390-668-625-1202-695-141-18-484-21-625-5-619 69-1086 368-1326 850-99 198-145 408-146 665-1 195 19 335 72 495 75 229 169 380 350 560 293 293 618 432 1135 484 99 10 465-4 590-23z"/>
  <path d="m2179 3933c-13-3-16-17-14-78 1-41 3-77 6-79 2-2 28-11 58-21 67-22 98-54 106-108 12-79-1-2607-14-2677-6-35-29-101-51-145-62-129-170-220-344-289-226-91-614-91-929 0-258 73-527 222-527 291 0 12 8 48 19 82l19 60-72 34c-39 19-74 32-78 28-7-6-358-757-358-766 0-3 31-20 69-40l70-35 55 55c30 30 64 55 74 55 11 0 105-33 209-74 473-186 621-219 998-219 268-1 431 23 630 93 171 60 340 157 444 253 117 110 232 308 270 467 11 47 25 141 30 210s10 684 10 1368c1 1027 4 1249 15 1276 18 43 56 72 117 87l50 13-3 80-3 81-420 1c-231 1-427-1-436-3z"/>
  <path d="m8886 3933c-3-4-6-40-6-82v-76l58-17c68-20 97-45 111-95 15-52 15-3273 1-3325-13-46-48-74-117-94l-53-15v-80-79l418 2 417 3v74c0 81 4 76-79 107-27 11-58 32-70 47l-21 28-3 1487c-1 819 2 1482 6 1477 5-6 308-356 673-780 365-423 907-1051 1204-1395 296-344 563-656 592-694 84-112 80-149-18-181l-49-17v-79-79h480 480v79 79l-56 18c-71 22-101 46-114 92-14 52-14 3273 1 3325 14 50 43 75 112 95l58 17-6 160h-415-415v-79-78l62-23c78-28 90-38 103-84 6-23 10-509 10-1394v-1359l-247 289c-135 158-522 610-858 1003s-737 861-889 1040c-251 293-336 403-336 436 0 21 52 64 91 76l39 11v84 83l-579-1c-318 0-582-3-585-6z"/>
  <path d="m14993 3933c-9-3-13-29-13-82v-77l44-12c24-6 57-22 72-35l28-24-23-62c-12-33-42-103-66-154-61-130-546-1177-615-1327-32-69-160-345-285-615-125-269-268-578-317-685-152-330-235-493-271-536-36-41-80-65-154-84l-43-11v-79-80h465 465v80c0 56-4 82-12 84-7 2-35 9-63 15-27 7-58 19-67 28-39 35-38 35 225 603l114 245h988 989l64-140c290-635 296-648 287-682-7-28-53-53-114-62l-46-6-2-83-1-82h494 494v79 79l-85 26c-54 17-98 38-120 58-39 34-112 177-308 603-63 138-261 567-440 955-178 388-375 815-437 950s-171 370-241 524c-154 332-160 350-133 376 10 10 41 27 69 38l49 19 4 69c3 56 1 70-14 81-14 10-116 13-493 12-262 0-482-3-488-6zm723-1179c440-966 534-1173 534-1179 0-3-354-5-786-5-471 0-784 4-782 9s178 395 393 865c250 550 392 851 397 843 4-8 114-248 244-533z"/>
  <path d="m17953 3934c-9-4-13-31-13-84v-78l43-11c58-15 105-46 120-79 19-43 17-3314-2-3360-14-34-51-58-123-81l-38-13v-79-79h435 435v80c0 79 0 80-27 86-66 16-112 44-130 76-17 31-18 111-18 1688 0 1284 3 1661 12 1682 15 33 62 64 121 79l42 11v84 83h-422c-233 0-429-3-435-5z"/>
  <path d="m19567 3933c-4-3-7-40-7-82v-76l58-17c68-20 97-45 111-95 15-52 15-3273 1-3325-13-46-48-74-117-94l-53-15v-80-79l438 2 437 3 1 65c1 80-6 96-48 104-51 9-98 43-114 81-12 29-14 148-14 740v705h694c555 0 695-3 699-13 2-7 110-179 239-382 752-1185 697-1094 673-1112-10-7-40-16-66-19-26-4-49-11-51-18-2-6-4-42-3-81v-70l478-3 477-2v85 85h-47c-55 0-136 35-170 71-20 22-137 203-710 1093-120 187-226 351-235 366l-18 27 104 17c425 69 751 313 875 653 116 317 77 697-99 967-162 248-420 402-770 459-136 23-195 28-375 37-203 9-2379 13-2388 3zm2668-470c248-56 406-175 474-356 44-120 52-324 16-457-51-192-199-331-415-389-149-40-234-43-1157-48l-893-5v642 641l943-4c905-3 945-4 1032-24z"/>
 </g>
</svg>
